/* XPM */
static char *a[] = {
/* columns rows colors chars-per-pixel */
"32 32 6 1 ",
"  c #010001",
". c #000002",
"X c #010002",
"o c #010003",
"O c #020002",
"+ c None",
/* pixels */
"+++++++++++++Ooo++++++++++++++++",
"++++++++++++oo+oO+++++++++++++++",
"++++++++++++oo+oo+++++++++++++++",
"++++++++++++ooooo+++++++++++++++",
"+++++++++++++oOo++++++++++++++++",
"+++++++++++++++++++Oooo+++++++++",
"++++++++++++++++++Oo++Oo++++++++",
"++++++++++++++++++oo+Oooo+++++++",
"+++++++++++oooo+++ooo+Ooo+++++++",
"++++++++++ooO+oo++ooOO+oo+++++++",
"+++++++++oo+oO+oo+OoO+oo++++++++",
"+++++++++oo+Ooooo++Oooo+++++++++",
"++++++++oooo++OooO++++++++++++++",
"+++++++++ooooo+ooO++++++++++++++",
"+++++++++oo+oO+oo+++++++++++++++",
"++++++++++oo+++oO+++++++++++++++",
"++++++ooo++OooOO+ooo++oo++++++++",
"+++o+ooooooooooooooooooo++++++++",
"+++oooooooooooooooooooooO+++++++",
"+++ooooooooooooooooooooooo++++++",
"+++ooooooooooooooooooooO+oo+++++",
"+++ooooooooooooooooooooO+ooO++++",
"++OooooooooooooooooooooooooooO++",
"+++oooooooooooooooooooooooooo+++",
"+++oooooooooooooooooooooooooo+++",
"+++ooooooooooooooooooooooooo++++",
"++++ooooooooooooooooooooooo+++++",
"++++ooooooooooooooooooooo+++++++",
"++++ooooooooooooooooooO+++++++++",
"++++ooooooooooooooooo+++++++++++",
"+++++oooo+++++++Ooooo+++++++++++",
"+++++oooo++++++++oooo+++++++++++"
};
